#!OML:ASF F:\VICON\USERDATA\INSTALL\rory3\rory3.ASF
:FULLY-SPECIFIED
:DEGREES
1713
root 1.62623 17.2511 0.287536 3.98266 -6.15975 8.97893
lowerback -0.855106 -0.0877192 13.0825
upperback -4.51754 0.588201 16.6707
thorax -4.52958 0.173639 10.9336
lowerneck -10.4956 -9.76906 -1.86229
upperneck 32.196 -29.0072 32.609
head 24.2951 -8.9756 11.0817
rclavicle -6.36111e-015 3.18055e-015
rhumerus 13.3374 -71.4608 -55.7155
rradius 104.192
rwrist -65.8186
rhand -55.5882 -12.7794
rfingers 7.12502
rthumb -27.9426 -40.7201
lclavicle -6.36111e-015 3.18055e-015
lhumerus 279.893 -42.2936 -228.536
lradius 81.9304
lwrist -6.25303
lhand -24.1149 0.693323
lfingers 7.12502
lthumb 2.3664 30.6599
rfemur -6.20845 20.9511 2.8337
rtibia 19.6672
rfoot -16.7634 -18.0756
rtoes -20.8632
lfemur 4.19326 -18.6152 -35.3206
ltibia -5.56597e-015
lfoot -7.5023 17.5589
ltoes -9.91797
1714
root 1.61383 17.255 0.304874 4.02012 -6.28553 8.80942
lowerback -0.961891 -0.0303296 13.0026
upperback -4.58187 0.644844 16.515
thorax -4.53788 0.199406 10.7866
lowerneck -10.4216 -9.78338 -1.89438
upperneck 32.0972 -29.0535 32.7536
head 24.3128 -9.01939 11.1634
rclavicle 1.31198e-014 -9.85972e-014
rhumerus 12.6988 -71.6841 -55.2128
rradius 104.061
rwrist -65.7819
rhand -55.9269 -11.871
rfingers 7.12502
rthumb -28.2664 -39.7586
lclavicle 1.31198e-014 -9.85972e-014
lhumerus 279.859 -42.2768 -228.673
lradius 82.0016
lwrist -6.02065
lhand -24.0238 0.618176
lfingers 7.12502
lthumb 2.45435 30.5838
rfemur -6.11633 20.8774 3.05569
rtibia 19.4549
rfoot -16.6657 -17.9288
rtoes -21.2901
lfemur 4.24544 -18.5998 -35.1249
ltibia 1.19271e-014
lfoot -7.59964 17.6182
ltoes -9.54311
1715
root 1.60138 17.2587 0.324931 4.04213 -6.45387 8.5742
lowerback -1.04816 -0.0635138 12.8247
upperback -4.68519 0.595495 16.4881
thorax -4.59615 0.179068 10.8596
lowerneck -10.2221 -9.69667 -2.02001
upperneck 32.209 -28.887 32.701
head 24.2645 -9.00301 11.2424
rclavicle 3.06128e-014 -1.59028e-013
rhumerus 12.6652 -71.5006 -55.2673
rradius 103.772
rwrist -65.4323
rhand -56.2948 -10.201
rfingers 7.12502
rthumb -28.6179 -38.0298
lclavicle 3.06128e-014 -1.59028e-013
lhumerus 279.865 -41.9311 -228.746
lradius 81.9924
lwrist -5.9324
lhand -24.0076 0.558519
lfingers 7.12502
lthumb 2.47002 30.524
rfemur -6.00432 20.8754 3.35136
rtibia 19.2363
rfoot -16.6371 -17.7441
rtoes -21.3886
lfemur 4.32918 -18.5324 -34.8705
ltibia -1.59028e-015
lfoot -7.8554 17.6998
ltoes -9.12564
1716
root 1.58592 17.2621 0.344627 4.10433 -6.64633 8.33234
lowerback -1.19662 -0.0894754 12.612
upperback -4.75512 0.532051 16.4493
thorax -4.57853 0.153447 10.9343
lowerneck -10.1675 -9.61374 -2.09286
upperneck 32.3779 -28.7692 32.584
head 24.3047 -8.98437 11.2629
rclavicle -2.50469e-014 -3.49861e-014
rhumerus 13.435 -71.4096 -56.1677
rradius 103.4
rwrist -64.949
rhand -55.309 -13.0714
rfingers 7.12502
rthumb -27.6756 -41.0553
lclavicle -2.50469e-014 -3.49861e-014
lhumerus 279.994 -41.6318 -228.889
lradius 81.8606
lwrist -5.91183
lhand -23.9387 0.604899
lfingers 7.12502
lthumb 2.53653 30.5696
rfemur -5.94947 20.9085 3.63883
rtibia 18.9918
rfoot -16.5219 -17.584
rtoes -21.102
lfemur 4.35579 -18.4504 -34.586
ltibia 9.54166e-015
lfoot -7.98952 17.8543
ltoes -9.5703
1717
root 1.56819 17.2673 0.362613 4.19594 -6.77437 8.06002
lowerback -1.41851 0.00143023 12.4825
upperback -4.79767 0.60156 16.3209
thorax -4.49778 0.18956 10.8455
lowerneck -10.2238 -9.64405 -2.05072
upperneck 32.2773 -28.7996 32.6268
head 24.2438 -8.98904 11.2287
rclavicle 5.1684e-015 -3.49861e-014
rhumerus 13.1786 -71.8821 -55.9819
rradius 103.354
rwrist -65.0182
rhand -54.8418 -14.9891
rfingers 7.12502
rthumb -27.2289 -43.0439
lclavicle 5.1684e-015 -3.49861e-014
lhumerus 279.97 -41.74 -228.954
lradius 81.8238
lwrist -5.76372
lhand -23.8549 0.636333
lfingers 7.12502
lthumb 2.6175 30.6
rfemur -5.89988 20.8273 3.97296
rtibia 18.744
rfoot -16.3748 -17.4297
rtoes -21.2753
lfemur 4.36136 -18.434 -34.2541
ltibia 1.90833e-014
lfoot -7.94433 18.0082
ltoes -10.3446
1718
root 1.54923 17.273 0.38029 4.29821 -6.88285 7.72002
lowerback -1.64032 0.103645 12.3491
upperback -4.82131 0.684725 16.2501
thorax -4.39982 0.234877 10.8295
lowerneck -10.311 -9.70495 -2.08369
upperneck 32.0915 -28.8488 32.7222
head 24.1805 -9.01372 11.2197
rclavicle -3.97569e-015 -3.18055e-015
rhumerus 12.3174 -72.3981 -55.099
rradius 103.392
rwrist -65.2722
rhand -55.2056 -13.9126
rfingers 7.12502
rthumb -27.5768 -41.9123
lclavicle -3.97569e-015 -3.18055e-015
lhumerus 280.04 -41.8439 -229.052
lradius 81.8392
lwrist -5.6497
lhand -23.7048 0.569698
lfingers 7.12502
lthumb 2.7625 30.5316
rfemur -5.83203 20.6967 4.38623
rtibia 18.4762
rfoot -16.2997 -17.1991
rtoes -21.2586
lfemur 4.37008 -18.4307 -33.844
ltibia 0
lfoot -7.99078 18.1119
ltoes -10.7241
1719
root 1.53243 17.2769 0.399874 4.37741 -6.98053 7.54265
lowerback -1.79322 0.107523 12.0642
upperback -4.90972 0.666151 16.1492
thorax -4.40251 0.233383 10.8697
lowerneck -10.2881 -9.72305 -2.16829
upperneck 32.0242 -28.8512 32.7592
head 24.1551 -9.04262 11.241
rclavicle 2.3059e-014 -7.63333e-014
rhumerus 11.7513 -72.5806 -54.5626
rradius 103.186
rwrist -65.1198
rhand -54.9858 -14.8045
rfingers 7.12502
rthumb -27.3666 -42.8375
lclavicle 2.3059e-014 -7.63333e-014
lhumerus 280.067 -41.6676 -229.227
lradius 81.9233
lwrist -5.51659
lhand -23.5119 0.413006
lfingers 7.12502
lthumb 2.94875 30.3724
rfemur -5.72306 20.62 4.61648
rtibia 18.1884
rfoot -16.2395 -16.9735
rtoes -20.7131
lfemur 4.40163 -18.4485 -33.6236
ltibia -7.95139e-015
lfoot -8.12083 18.2196
ltoes -10.6168
1720
root 1.51457 17.2829 0.418785 4.49266 -7.09054 7.26051
lowerback -1.9301 0.122215 11.9099
upperback -5.03968 0.675257 16.0302
thorax -4.46306 0.239388 10.8169
lowerneck -10.2139 -9.72517 -2.22613
upperneck 32.0201 -28.8415 32.7609
head 24.1348 -9.06552 11.2555
rclavicle -1.55052e-014 1.145e-013
rhumerus 11.275 -72.8274 -54.1694
rradius 102.886
rwrist -64.6318
rhand -54.3134 -16.2186
rfingers 7.12502
rthumb -26.7233 -44.3516
lclavicle -1.55052e-014 1.145e-013
lhumerus 279.942 -41.4808 -229.335
lradius 81.9875
lwrist -5.4489
lhand -23.4579 0.423755
lfingers 7.12502
lthumb 3.00086 30.3824
rfemur -5.63973 20.6391 4.96716
rtibia 17.8924
rfoot -16.088 -16.8796
rtoes -19.9091
lfemur 4.4213 -18.4508 -33.2916
ltibia -1.11319e-014
lfoot -7.99892 18.4122
ltoes -11.7681
1721
root 1.49301 17.2874 0.43724 4.60675 -7.26184 6.90136
lowerback -2.09717 0.155453 11.7423
upperback -5.11081 0.690287 15.9603
thorax -4.44317 0.250933 10.8278
lowerneck -10.1938 -9.7242 -2.28276
upperneck 32.0179 -28.8415 32.7675
head 24.1523 -9.0887 11.2735
rclavicle 2.74323e-014 4.45278e-014
rhumerus 11.5726 -73.0274 -54.588
rradius 102.839
rwrist -64.2549
rhand -54.335 -15.8487
rfingers 7.12502
rthumb -26.7439 -43.9785
lclavicle 2.74323e-014 4.45278e-014
lhumerus 279.907 -41.351 -229.433
lradius 82.0679
lwrist -5.36649
lhand -23.5402 0.652821
lfingers 7.12502
lthumb 2.92146 30.6126
rfemur -5.59767 20.6247 5.40022
rtibia 17.6263
rfoot -15.8931 -16.7203
rtoes -19.6364
lfemur 4.44585 -18.3829 -32.863
ltibia -6.36111e-015
lfoot -7.98341 18.6103
ltoes -12.7482
1722
root 1.47246 17.2918 0.455839 4.68737 -7.40144 6.61528
lowerback -2.28246 0.163554 11.526
upperback -5.18058 0.66703 15.8395
thorax -4.40512 0.244087 10.8043
lowerneck -10.2078 -9.72542 -2.23212
upperneck 32.1223 -28.8665 32.6521
head 24.1773 -9.09356 11.1921
rclavicle 6.36111e-015 -5.08889e-014
rhumerus 11.9425 -73.0156 -55.1373
rradius 102.864
rwrist -64.1675
rhand -54.8872 -15.3166
rfingers 7.12502
rthumb -27.2722 -43.3645
lclavicle 6.36111e-015 -5.08889e-014
lhumerus 279.86 -41.2664 -229.565
lradius 82.2256
lwrist -5.03952
lhand -23.2826 0.707061
lfingers 7.12502
lthumb 3.17017 30.6632
rfemur -5.50557 20.4958 5.75873
rtibia 17.3438
rfoot -15.7114 -16.4597
rtoes -19.9161
lfemur 4.48205 -18.3449 -32.5128
ltibia 1.74931e-014
lfoot -8.07418 18.7278
ltoes -12.9918
1723
root 1.45168 17.2962 0.476128 4.78134 -7.51846 6.40086
lowerback -2.55102 0.179121 11.2737
upperback -5.30068 0.644986 15.6535
thorax -4.37211 0.237506 10.7239
lowerneck -10.1038 -9.71059 -2.17635
upperneck 32.1878 -28.8379 32.5843
head 24.1086 -9.08607 11.1461
rclavicle -9.14409e-015 1.08139e-013
rhumerus 11.3654 -72.9911 -54.6934
rradius 102.669
rwrist -64.0493
rhand -55.0819 -14.5845
rfingers 7.12502
rthumb -27.4585 -42.603
lclavicle -9.14409e-015 1.08139e-013
lhumerus 279.598 -41.2498 -229.518
lradius 82.3068
lwrist -4.61237
lhand -22.9836 0.656085
lfingers 7.12502
lthumb 3.45896 30.6078
rfemur -5.41181 20.3232 6.04533
rtibia 17.0669
rfoot -15.529 -16.2251
rtoes -20.2315
lfemur 4.50089 -18.3387 -32.23
ltibia -1.11319e-014
lfoot -8.21714 18.7868
ltoes -12.5545
1724
root 1.42878 17.3018 0.49721 4.88973 -7.63893 6.1432
lowerback -2.70765 0.173512 10.9922
upperback -5.42724 0.623529 15.529
thorax -4.41355 0.234057 10.7383
lowerneck -10.1003 -9.68383 -2.25581
upperneck 32.2008 -28.7976 32.5813
head 24.1296 -9.09852 11.178
rclavicle -7.15625e-015 6.67916e-014
rhumerus 10.5217 -73.0706 -53.7875
rradius 102.434
rwrist -63.8729
rhand -54.9402 -13.626
rfingers 7.12502
rthumb -27.323 -41.6659
lclavicle -7.15625e-015 6.67916e-014
lhumerus 279.445 -41.0883 -229.526
lradius 82.3816
lwrist -4.37891
lhand -22.7282 0.72934
lfingers 7.12502
lthumb 3.70556 30.6769
rfemur -5.30437 20.2339 6.38717
rtibia 16.7632
rfoot -15.4596 -16.0459
rtoes -20.3365
lfemur 4.52278 -18.3259 -31.8954
ltibia -1.74931e-014
lfoot -8.32995 18.8966
ltoes -12.7327
1725
root 1.40288 17.3056 0.516124 5.01261 -7.76455 5.8778
lowerback -2.75414 0.175778 10.6778
upperback -5.61288 0.648977 15.4079
thorax -4.58939 0.255633 10.7816
lowerneck -10.0754 -9.67265 -2.40701
upperneck 32.2443 -28.7994 32.5811
head 24.2368 -9.14538 11.241
rclavicle -7.95139e-015 1.36764e-013
rhumerus 8.6577 -73.0966 -51.622
rradius 102.097
rwrist -64.3166
rhand -55.0485 -12.2132
rfingers 7.12502
rthumb -27.4265 -40.2368
lclavicle -7.95139e-015 1.36764e-013
lhumerus 279.222 -40.8386 -229.494
lradius 82.4742
lwrist -4.15838
lhand -22.5282 0.793884
lfingers 7.12502
lthumb 3.89868 30.738
rfemur -5.20201 20.129 6.73153
rtibia 16.3945
rfoot -15.2264 -15.8737
rtoes -20.8771
lfemur 4.52585 -18.3087 -31.5396
ltibia -1.11319e-014
lfoot -8.34832 19.0235
ltoes -13.5081
1726
root 1.37603 17.3099 0.533388 5.19907 -7.89586 5.47166
lowerback -2.9872 0.220764 10.5359
upperback -5.73387 0.677343 15.258
thorax -4.58505 0.270974 10.6848
lowerneck -10.0978 -9.64942 -2.4464
upperneck 32.2125 -28.7853 32.6403
head 24.2721 -9.16164 11.2911
rclavicle -3.18055e-015 -9.54166e-015
rhumerus 6.97451 -73.0808 -49.7985
rradius 101.824
rwrist -64.849
rhand -55.4953 -11.5748
rfingers 7.12502
rthumb -27.8538 -39.5299
lclavicle -3.18055e-015 -9.54166e-015
lhumerus 279.002 -40.8268 -229.477
lradius 82.5797
lwrist -3.76565
lhand -22.298 0.880069
lfingers 7.12502
lthumb 4.12097 30.82
rfemur -5.13036 20.0662 7.21285
rtibia 15.9658
rfoot -14.9394 -15.6613
rtoes -20.7375
lfemur 4.47017 -18.2797 -31.0025
ltibia 7.95139e-015
lfoot -8.49819 19.1105
ltoes -13.12
1727
root 1.34853 17.3166 0.548838 5.40873 -8.05588 4.99152
lowerback -3.31711 0.244514 10.4324
upperback -5.7953 0.646036 15.1538
thorax -4.45421 0.256202 10.6167
lowerneck -10.122 -9.60761 -2.46464
upperneck 32.1735 -28.7046 32.6644
head 24.2161 -9.1448 11.3116
rclavicle -8.74653e-015 7.63333e-014
rhumerus 7.1537 -73.0163 -50.1069
rradius 101.813
rwrist -64.6997
rhand -55.9643 -11.564
rfingers 7.12502
rthumb -28.3021 -39.4456
lclavicle -8.74653e-015 7.63333e-014
lhumerus 278.986 -40.8 -229.631
lradius 82.6879
lwrist -3.45567
lhand -22.036 0.995548
lfingers 7.12502
lthumb 4.374 30.9304
rfemur -5.06831 20.0843 7.76818
rtibia 15.4791
rfoot -14.7249 -15.4326
rtoes -20.1313
lfemur 4.37686 -18.2143 -30.3663
ltibia -2.06736e-014
lfoot -8.60401 19.1566
ltoes -12.7334
